<svg xmlns="http://www.w3.org/2000/svg" width="176" height="44" viewBox="0 0 176 44">
    <g fill="none">
        <path fill="#18F565" d="M27.152 43.937c-6.56 0-15.167-.058-19.026.044V8.1H25.63c3.69 0 6.599.937 8.83 2.808 2.208 1.78 3.463 4.486 3.393 7.321 0 3.482-1.3 6.027-4.155 7.85.34-.218 2.114 1.27 2.424 1.527.75.67 1.376 1.468 1.847 2.357 1.156 2.366 1.274 5.106.326 7.563-.949 2.457-2.878 4.407-5.324 5.382-1.856.713-3.831 1.062-5.818 1.028z"/>
        <path fill="#0346B1" d="M0 37.47V0h24.592c1.063-.004 2.084.416 2.837 1.166.754.751 1.177 1.77 1.177 2.834v.102c0 2.209-1.79 4-4 4H8.121v6.613h16.485c2.21 0 4 1.791 4 4 0 2.21-1.79 4-4 4H8.121v6.652h16.485c2.21 0 4 1.791 4 4v.088c0 2.209-1.79 4-4 4L0 37.469zM70.303 19.559L70.303 24.655 58.114 24.655 58.114 29.91 71.205 29.91 71.205 35.006 52.242 35.006 52.242 9.697 71.045 9.697 71.045 14.812 58.114 14.812 58.114 19.559zM74.395 35.006V9.697h11.942c7.937 0 9.595 3.438 9.595 6.754-.009 2.53-1.81 4.697-4.296 5.168 3.331.708 5.217 2.788 5.217 5.819 0 3.583-2.2 7.583-10.21 7.583l-12.248-.015zm12.083-15.36c2.749 0 3.524-1.096 3.524-2.507 0-1.41-.775-2.506-3.524-2.506h-6.211v5.013h6.21zm0 10.458c3.394 0 4.363-.97 4.363-2.856s-.97-2.86-4.363-2.86h-6.211v5.716h6.21zM102.686 8.441c1.676 0 3.035 1.36 3.035 3.035 0 1.677-1.359 3.036-3.035 3.036-1.676 0-3.035-1.36-3.035-3.036s1.359-3.035 3.035-3.035zm-2.909 8.398h5.79v18.167h-5.775l-.015-18.167zM115.035 35.006h-5.789V16.84h5.79v1.94c1.056-1.625 2.608-2.454 4.848-2.454 6.017 0 8.344 3.49 8.344 9.28v9.401h-5.79V25.59c0-3-.896-4.848-3.703-4.848-2.808 0-3.7 1.833-3.7 4.848v9.416zM152.073 16.839v18.167h-5.785v-2.424c-1.076 1.643-3.054 2.909-5.963 2.909-5.416 0-9.275-3.578-9.275-9.61 0-6.031 3.878-9.614 9.275-9.614 2.909 0 4.848 1.304 5.963 2.909v-2.424l5.785.087zm-10.497 14.254c3.05 0 4.727-2.186 4.727-5.168s-1.692-5.169-4.727-5.169-4.728 2.187-4.728 5.169c0 2.982 1.659 5.168 4.728 5.168zM175.918 16.839v18.167h-5.785v-2.424c-1.076 1.643-3.05 2.909-5.963 2.909-5.411 0-9.275-3.578-9.275-9.61 0-6.031 3.878-9.614 9.275-9.614 2.909 0 4.848 1.304 5.963 2.909v-2.424l5.785.087zm-10.512 14.254c3.055 0 4.727-2.186 4.727-5.168s-1.672-5.169-4.727-5.169c-3.054 0-4.727 2.187-4.727 5.169 0 2.982 1.677 5.168 4.727 5.168z"/>
    </g>
</svg>
